<svg width="1424" height="210" viewBox="0 0 1424 210" fill="none" xmlns="http://www.w3.org/2000/svg">
<path d="M201.52 53.3555V35.0625H269.857V53.5166C269.857 55.397 269.185 57.0087 267.842 58.3518C266.499 59.6412 264.914 60.2859 263.088 60.2859C261.207 60.2859 259.569 59.6143 258.172 58.2712C256.829 56.9281 256.157 55.3433 256.157 53.5166V48.6009H242.458V135.231C242.458 137.111 241.786 138.723 240.443 140.066C239.1 141.355 237.515 142 235.689 142C233.754 142 232.116 141.355 230.773 140.066C229.43 138.723 228.758 137.111 228.758 135.231V48.6009H215.059V53.3555C215.059 55.2358 214.387 56.8475 213.044 58.1906C211.755 59.48 210.17 60.1247 208.289 60.1247C206.409 60.1247 204.797 59.48 203.454 58.1906C202.165 56.8475 201.52 55.2358 201.52 53.3555ZM362.853 48.6009H314.985V81.5605H335.615C337.442 81.5605 339.027 82.2321 340.37 83.5752C341.713 84.9183 342.384 86.5032 342.384 88.3298C342.384 90.2638 341.713 91.9024 340.37 93.2455C339.08 94.5886 337.495 95.2602 335.615 95.2602H314.985V128.462H363.014C364.841 128.462 366.426 129.133 367.769 130.476C369.112 131.766 369.784 133.35 369.784 135.231C369.784 137.111 369.085 138.723 367.688 140.066C366.345 141.355 364.733 142 362.853 142H301.447V34.9013H362.853C364.733 34.9013 366.345 35.5997 367.688 36.9965C369.085 38.3396 369.784 39.9513 369.784 41.8317C369.784 43.6583 369.085 45.2432 367.688 46.5863C366.345 47.9294 364.733 48.6009 362.853 48.6009ZM416.523 34.9013H451.739C456.037 34.9013 460.094 36.7279 463.908 40.3811C467.776 43.9806 469.71 48.3591 469.71 53.5166C469.71 55.4507 469.012 57.0893 467.615 58.4324C466.272 59.7755 464.768 60.447 463.102 60.447C460.792 60.447 459.207 59.9367 458.347 58.9159C457.488 57.8414 456.655 55.8805 455.849 53.0331C455.097 50.1858 453.378 48.7621 450.692 48.7621H417.249C415.637 48.7621 414.831 49.2725 414.831 50.2932C414.831 50.9379 415.18 51.69 415.879 52.5496L466.084 116.777C468.501 119.893 469.71 123.223 469.71 126.769C469.71 130.799 468.233 134.344 465.278 137.407C462.377 140.469 459.126 142 455.527 142H419.022C414.186 142 409.969 140.173 406.37 136.52C402.824 132.813 401.051 128.757 401.051 124.352C401.051 119.302 403.415 116.777 408.142 116.777C409.969 116.777 411.527 117.448 412.816 118.791C414.106 120.081 414.751 121.612 414.751 123.385C414.751 124.835 415.234 126.044 416.201 127.011C417.222 127.978 418.484 128.462 419.989 128.462H453.674C455.124 128.462 455.849 127.897 455.849 126.769C455.849 126.232 455.5 125.534 454.802 124.674L404.677 60.447C402.313 57.3848 401.131 54.0539 401.131 50.4544C401.131 46.2639 402.636 42.6375 405.644 39.5753C408.653 36.4593 412.279 34.9013 416.523 34.9013ZM516.289 34.9013H551.505C555.803 34.9013 559.859 36.7279 563.673 40.3811C567.541 43.9806 569.476 48.3591 569.476 53.5166C569.476 55.4507 568.777 57.0893 567.38 58.4324C566.037 59.7755 564.533 60.447 562.867 60.447C560.557 60.447 558.972 59.9367 558.113 58.9159C557.253 57.8414 556.421 55.8805 555.615 53.0331C554.863 50.1858 553.143 48.7621 550.457 48.7621H517.014C515.402 48.7621 514.596 49.2725 514.596 50.2932C514.596 50.9379 514.946 51.69 515.644 52.5496L565.849 116.777C568.267 119.893 569.476 123.223 569.476 126.769C569.476 130.799 567.998 134.344 565.043 137.407C562.142 140.469 558.892 142 555.292 142H518.787C513.952 142 509.734 140.173 506.135 136.52C502.589 132.813 500.816 128.757 500.816 124.352C500.816 119.302 503.18 116.777 507.908 116.777C509.734 116.777 511.292 117.448 512.582 118.791C513.871 120.081 514.516 121.612 514.516 123.385C514.516 124.835 514.999 126.044 515.966 127.011C516.987 127.978 518.25 128.462 519.754 128.462H553.439C554.889 128.462 555.615 127.897 555.615 126.769C555.615 126.232 555.266 125.534 554.567 124.674L504.443 60.447C502.079 57.3848 500.897 54.0539 500.897 50.4544C500.897 46.2639 502.401 42.6375 505.41 39.5753C508.418 36.4593 512.045 34.9013 516.289 34.9013ZM662.149 48.6009H614.281V81.5605H634.911C636.738 81.5605 638.323 82.2321 639.666 83.5752C641.009 84.9183 641.68 86.5032 641.68 88.3298C641.68 90.2638 641.009 91.9024 639.666 93.2455C638.376 94.5886 636.792 95.2602 634.911 95.2602H614.281V128.462H662.31C664.137 128.462 665.722 129.133 667.065 130.476C668.408 131.766 669.08 133.35 669.08 135.231C669.08 137.111 668.381 138.723 666.984 140.066C665.641 141.355 664.03 142 662.149 142H600.743V34.9013H662.149C664.03 34.9013 665.641 35.5997 666.984 36.9965C668.381 38.3396 669.08 39.9513 669.08 41.8317C669.08 43.6583 668.381 45.2432 666.984 46.5863C665.641 47.9294 664.03 48.6009 662.149 48.6009ZM700.669 135.231V34.9013H748.537C754.071 34.9013 758.826 36.9159 762.801 40.9452C766.83 44.9745 768.845 49.7828 768.845 55.3701V63.1064C768.845 68.7474 766.857 73.5825 762.882 77.6118C758.906 81.5874 754.125 83.5752 748.537 83.5752H739.915L767.636 131.121C768.496 132.518 768.926 133.915 768.926 135.311C768.926 137.138 768.227 138.723 766.83 140.066C765.434 141.355 763.849 142 762.076 142C759.39 142 757.348 140.791 755.951 138.374L724.12 83.5752H714.369V135.231C714.369 137.111 713.671 138.723 712.274 140.066C710.931 141.355 709.319 142 707.439 142C705.558 142 703.947 141.355 702.603 140.066C701.314 138.723 700.669 137.111 700.669 135.231ZM714.208 70.0368H748.537C750.418 70.0368 752.003 69.3921 753.292 68.1027C754.635 66.7596 755.307 65.1479 755.307 63.2675V55.3701C755.307 53.4898 754.635 51.9049 753.292 50.6156C752.003 49.2725 750.418 48.6009 748.537 48.6009H714.208V70.0368ZM800.677 132.571L828.076 39.9782C829.15 36.5936 831.407 34.9013 834.845 34.9013C838.176 34.9013 840.271 36.325 841.131 39.1723L868.127 133.216C868.342 133.915 868.449 134.586 868.449 135.231C868.449 137.111 867.805 138.723 866.515 140.066C865.226 141.355 863.748 142 862.083 142C858.537 142 856.281 140.361 855.314 137.084L849.834 118.711H818.97L813.006 138.374C812.845 139.233 812.173 140.066 810.992 140.872C809.81 141.624 808.52 142 807.123 142C805.136 142 803.497 141.328 802.208 139.985C800.918 138.642 800.274 137.004 800.274 135.07C800.274 134.264 800.408 133.431 800.677 132.571ZM834.684 66.2492L823.079 105.011H845.885L834.684 66.2492ZM937.189 128.462H961.607C963.487 128.462 965.099 129.133 966.442 130.476C967.839 131.766 968.537 133.35 968.537 135.231C968.537 137.111 967.839 138.723 966.442 140.066C965.099 141.355 963.487 142 961.607 142H936.303C933.079 142 929.748 140.979 926.31 138.938C922.872 136.896 920.481 134.613 919.138 132.088L903.504 101.868C901.409 97.5166 900.361 93.0575 900.361 88.4909C900.361 83.4409 901.355 79.0624 903.343 75.3554L919.138 45.4581C920.642 42.6644 922.979 40.22 926.149 38.1247C929.319 35.9758 932.381 34.9013 935.336 34.9013H962.09C963.971 34.9013 965.555 35.5728 966.845 36.9159C968.188 38.259 968.859 39.8439 968.859 41.6705C968.859 43.5509 968.188 45.1894 966.845 46.5863C965.555 47.9294 963.971 48.6009 962.09 48.6009H936.303C934.154 48.6009 932.408 49.8634 931.065 52.3884L916.076 80.4323C914.894 82.635 914.303 85.2406 914.303 88.2492C914.303 91.4189 914.947 94.2125 916.237 96.6301L930.581 124.191C931.924 127.038 934.127 128.462 937.189 128.462ZM999.643 53.3555V35.0625H1067.98V53.5166C1067.98 55.397 1067.31 57.0087 1065.97 58.3518C1064.62 59.6412 1063.04 60.2859 1061.21 60.2859C1059.33 60.2859 1057.69 59.6143 1056.3 58.2712C1054.95 56.9281 1054.28 55.3433 1054.28 53.5166V48.6009H1040.58V135.231C1040.58 137.111 1039.91 138.723 1038.57 140.066C1037.22 141.355 1035.64 142 1033.81 142C1031.88 142 1030.24 141.355 1028.9 140.066C1027.55 138.723 1026.88 137.111 1026.88 135.231V48.6009H1013.18V53.3555C1013.18 55.2358 1012.51 56.8475 1011.17 58.1906C1009.88 59.48 1008.29 60.1247 1006.41 60.1247C1004.53 60.1247 1002.92 59.48 1001.58 58.1906C1000.29 56.8475 999.643 55.2358 999.643 53.3555ZM1140.89 47.6339V41.8317C1140.89 39.9513 1141.54 38.3665 1142.82 37.0771C1144.17 35.734 1145.78 35.0625 1147.66 35.0625H1209.07V76.6448C1209.07 78.8475 1208.23 80.6741 1206.57 82.1247L1181.67 103.399V134.908C1181.67 136.789 1181 138.427 1179.65 139.824C1178.36 141.167 1176.78 141.839 1174.9 141.839C1173.02 141.839 1171.38 141.167 1169.98 139.824C1168.64 138.481 1167.97 136.896 1167.97 135.07V100.901C1167.97 98.3224 1168.77 96.3346 1170.39 94.9378L1195.37 73.8243V48.6009H1154.43C1153.46 52.469 1151.21 54.4031 1147.66 54.4031C1145.78 54.4031 1144.17 53.7584 1142.82 52.469C1141.54 51.1259 1140.89 49.5142 1140.89 47.6339ZM1268.06 99.2895H1281.76C1283.58 99.2895 1285.17 99.961 1286.51 101.304C1287.85 102.593 1288.52 104.178 1288.52 106.059V117.582C1288.52 119.463 1287.85 121.101 1286.51 122.498C1285.22 123.841 1283.64 124.513 1281.76 124.513H1267.89C1266.01 124.513 1264.4 123.841 1263.06 122.498C1261.77 121.155 1261.13 119.57 1261.13 117.744V106.059C1261.13 104.178 1261.8 102.593 1263.14 101.304C1264.48 99.961 1266.12 99.2895 1268.06 99.2895ZM1340.42 128.784V47.795C1340.42 44.2493 1341.71 41.187 1344.29 38.6082C1346.87 36.0295 1349.93 34.7401 1353.48 34.7401H1395.7C1399.2 34.7401 1402.2 36.0295 1404.73 38.6082C1407.31 41.187 1408.6 44.2493 1408.6 47.795V128.784C1408.6 132.383 1407.31 135.473 1404.73 138.051C1402.2 140.576 1399.14 141.839 1395.54 141.839H1353.48C1349.82 141.839 1346.73 140.576 1344.21 138.051C1341.68 135.473 1340.42 132.383 1340.42 128.784ZM1395.22 128.3V48.4397H1353.96V128.3H1395.22Z" fill="white"/>
<path d="M247.896 156.574V160.654H237.421V195H232.404V160.654H221.874V156.574H247.896ZM275.131 164.237C277.41 164.237 279.468 164.734 281.305 165.726C283.143 166.682 284.576 168.133 285.606 170.081C286.671 172.029 287.204 174.4 287.204 177.193V195H282.243V177.91C282.243 174.896 281.489 172.599 279.982 171.018C278.475 169.401 276.417 168.593 273.808 168.593C271.162 168.593 269.048 169.42 267.468 171.074C265.924 172.727 265.152 175.135 265.152 178.296V195H260.136V154.204H265.152V169.089C266.145 167.545 267.505 166.351 269.232 165.505C270.996 164.66 272.962 164.237 275.131 164.237ZM329.029 178.737C329.029 179.692 328.973 180.703 328.863 181.769H304.716C304.9 184.746 305.911 187.08 307.748 188.77C309.623 190.424 311.883 191.251 314.529 191.251C316.698 191.251 318.499 190.755 319.932 189.763C321.402 188.734 322.431 187.374 323.019 185.683H328.422C327.614 188.587 325.996 190.957 323.571 192.795C321.145 194.596 318.131 195.496 314.529 195.496C311.663 195.496 309.09 194.853 306.811 193.567C304.569 192.28 302.805 190.461 301.519 188.109C300.232 185.72 299.589 182.963 299.589 179.839C299.589 176.715 300.214 173.977 301.464 171.625C302.713 169.273 304.459 167.472 306.701 166.222C308.98 164.936 311.589 164.293 314.529 164.293C317.396 164.293 319.932 164.917 322.137 166.167C324.343 167.417 326.033 169.144 327.209 171.349C328.422 173.518 329.029 175.98 329.029 178.737ZM323.846 177.689C323.846 175.778 323.424 174.142 322.578 172.783C321.733 171.386 320.575 170.339 319.105 169.64C317.672 168.905 316.073 168.538 314.309 168.538C311.773 168.538 309.604 169.346 307.804 170.963C306.039 172.58 305.029 174.822 304.771 177.689H323.846ZM384.198 156.574V160.654H367.494V173.61H381.056V177.689H367.494V195H362.477V156.574H384.198ZM401.339 154.204V195H396.322V154.204H401.339ZM414.079 179.784C414.079 176.697 414.704 173.995 415.953 171.68C417.203 169.328 418.912 167.509 421.08 166.222C423.285 164.936 425.73 164.293 428.413 164.293C431.059 164.293 433.356 164.862 435.304 166.002C437.252 167.141 438.703 168.574 439.659 170.302V164.789H444.731V195H439.659V189.377C438.667 191.141 437.178 192.611 435.193 193.787C433.246 194.926 430.967 195.496 428.357 195.496C425.674 195.496 423.249 194.835 421.08 193.511C418.912 192.188 417.203 190.332 415.953 187.943C414.704 185.554 414.079 182.835 414.079 179.784ZM439.659 179.839C439.659 177.561 439.2 175.576 438.281 173.885C437.362 172.195 436.112 170.908 434.532 170.026C432.988 169.107 431.279 168.648 429.405 168.648C427.53 168.648 425.821 169.089 424.278 169.971C422.734 170.853 421.503 172.139 420.584 173.83C419.665 175.521 419.206 177.505 419.206 179.784C419.206 182.1 419.665 184.121 420.584 185.848C421.503 187.539 422.734 188.844 424.278 189.763C425.821 190.645 427.53 191.086 429.405 191.086C431.279 191.086 432.988 190.645 434.532 189.763C436.112 188.844 437.362 187.539 438.281 185.848C439.2 184.121 439.659 182.118 439.659 179.839ZM471.733 164.293C474.342 164.293 476.621 164.862 478.569 166.002C480.553 167.141 482.024 168.574 482.979 170.302V164.789H488.051V195.662C488.051 198.418 487.463 200.862 486.287 202.994C485.111 205.162 483.42 206.853 481.215 208.066C479.047 209.279 476.511 209.885 473.607 209.885C469.638 209.885 466.33 208.948 463.684 207.073C461.037 205.199 459.475 202.645 458.998 199.41H463.959C464.511 201.248 465.65 202.718 467.377 203.821C469.105 204.96 471.181 205.53 473.607 205.53C476.364 205.53 478.606 204.666 480.333 202.939C482.097 201.211 482.979 198.786 482.979 195.662V189.322C481.987 191.086 480.517 192.556 478.569 193.732C476.621 194.908 474.342 195.496 471.733 195.496C469.05 195.496 466.606 194.835 464.4 193.511C462.232 192.188 460.523 190.332 459.273 187.943C458.024 185.554 457.399 182.835 457.399 179.784C457.399 176.697 458.024 173.995 459.273 171.68C460.523 169.328 462.232 167.509 464.4 166.222C466.606 164.936 469.05 164.293 471.733 164.293ZM482.979 179.839C482.979 177.561 482.52 175.576 481.601 173.885C480.682 172.195 479.432 170.908 477.852 170.026C476.308 169.107 474.599 168.648 472.725 168.648C470.851 168.648 469.142 169.089 467.598 169.971C466.054 170.853 464.823 172.139 463.904 173.83C462.985 175.521 462.526 177.505 462.526 179.784C462.526 182.1 462.985 184.121 463.904 185.848C464.823 187.539 466.054 188.844 467.598 189.763C469.142 190.645 470.851 191.086 472.725 191.086C474.599 191.086 476.308 190.645 477.852 189.763C479.432 188.844 480.682 187.539 481.601 185.848C482.52 184.121 482.979 182.118 482.979 179.839ZM513.289 195.496C510.973 195.496 508.897 195.11 507.059 194.338C505.221 193.53 503.769 192.427 502.704 191.031C501.638 189.597 501.05 187.962 500.939 186.124H506.122C506.269 187.631 506.967 188.862 508.217 189.818C509.503 190.773 511.175 191.251 513.233 191.251C515.145 191.251 516.652 190.828 517.754 189.983C518.857 189.138 519.408 188.072 519.408 186.786C519.408 185.463 518.82 184.489 517.644 183.864C516.468 183.202 514.648 182.559 512.186 181.934C509.944 181.346 508.106 180.758 506.673 180.17C505.276 179.545 504.064 178.645 503.034 177.469C502.042 176.256 501.546 174.675 501.546 172.727C501.546 171.184 502.005 169.769 502.924 168.482C503.843 167.196 505.148 166.185 506.838 165.45C508.529 164.678 510.459 164.293 512.627 164.293C515.972 164.293 518.673 165.138 520.731 166.829C522.789 168.519 523.892 170.835 524.039 173.775H519.022C518.912 172.195 518.269 170.927 517.093 169.971C515.953 169.015 514.41 168.538 512.462 168.538C510.661 168.538 509.227 168.924 508.161 169.695C507.096 170.467 506.563 171.478 506.563 172.727C506.563 173.72 506.875 174.547 507.5 175.208C508.161 175.833 508.97 176.348 509.926 176.752C510.918 177.12 512.278 177.542 514.005 178.02C516.174 178.608 517.938 179.196 519.298 179.784C520.658 180.335 521.815 181.181 522.771 182.32C523.763 183.459 524.278 184.948 524.315 186.786C524.315 188.44 523.855 189.928 522.936 191.251C522.018 192.574 520.713 193.622 519.022 194.394C517.368 195.129 515.457 195.496 513.289 195.496ZM552.456 164.237C554.735 164.237 556.793 164.734 558.631 165.726C560.469 166.682 561.902 168.133 562.931 170.081C563.997 172.029 564.53 174.4 564.53 177.193V195H559.568V177.91C559.568 174.896 558.815 172.599 557.308 171.018C555.801 169.401 553.743 168.593 551.133 168.593C548.487 168.593 546.374 169.42 544.793 171.074C543.25 172.727 542.478 175.135 542.478 178.296V195H537.461V154.204H542.478V169.089C543.47 167.545 544.83 166.351 546.557 165.505C548.322 164.66 550.288 164.237 552.456 164.237ZM581.38 159.882C580.425 159.882 579.616 159.551 578.954 158.89C578.293 158.228 577.962 157.42 577.962 156.464C577.962 155.509 578.293 154.7 578.954 154.038C579.616 153.377 580.425 153.046 581.38 153.046C582.299 153.046 583.071 153.377 583.696 154.038C584.357 154.7 584.688 155.509 584.688 156.464C584.688 157.42 584.357 158.228 583.696 158.89C583.071 159.551 582.299 159.882 581.38 159.882ZM583.806 164.789V195H578.789V164.789H583.806ZM603.437 170.357C604.43 168.629 605.9 167.196 607.848 166.057C609.832 164.881 612.13 164.293 614.739 164.293C617.422 164.293 619.848 164.936 622.016 166.222C624.221 167.509 625.949 169.328 627.198 171.68C628.448 173.995 629.073 176.697 629.073 179.784C629.073 182.835 628.448 185.554 627.198 187.943C625.949 190.332 624.221 192.188 622.016 193.511C619.848 194.835 617.422 195.496 614.739 195.496C612.166 195.496 609.888 194.926 607.903 193.787C605.955 192.611 604.466 191.159 603.437 189.432V209.334H598.421V164.789H603.437V170.357ZM623.946 179.784C623.946 177.505 623.486 175.521 622.567 173.83C621.649 172.139 620.399 170.853 618.819 169.971C617.275 169.089 615.566 168.648 613.692 168.648C611.854 168.648 610.145 169.107 608.564 170.026C607.021 170.908 605.771 172.213 604.816 173.94C603.897 175.631 603.437 177.597 603.437 179.839C603.437 182.118 603.897 184.121 604.816 185.848C605.771 187.539 607.021 188.844 608.564 189.763C610.145 190.645 611.854 191.086 613.692 191.086C615.566 191.086 617.275 190.645 618.819 189.763C620.399 188.844 621.649 187.539 622.567 185.848C623.486 184.121 623.946 182.1 623.946 179.784ZM667.52 160.654V173.499H681.523V177.634H667.52V190.865H683.176V195H662.503V156.519H683.176V160.654H667.52ZM708.078 190.369L717.45 164.789H722.798L710.945 195H705.101L693.248 164.789H698.651L708.078 190.369ZM761.364 178.737C761.364 179.692 761.309 180.703 761.199 181.769H737.052C737.236 184.746 738.246 187.08 740.084 188.77C741.958 190.424 744.219 191.251 746.865 191.251C749.033 191.251 750.834 190.755 752.268 189.763C753.738 188.734 754.767 187.374 755.355 185.683H760.758C759.949 188.587 758.332 190.957 755.906 192.795C753.481 194.596 750.467 195.496 746.865 195.496C743.998 195.496 741.425 194.853 739.147 193.567C736.905 192.28 735.141 190.461 733.854 188.109C732.568 185.72 731.925 182.963 731.925 179.839C731.925 176.715 732.55 173.977 733.799 171.625C735.049 169.273 736.795 167.472 739.036 166.222C741.315 164.936 743.925 164.293 746.865 164.293C749.732 164.293 752.268 164.917 754.473 166.167C756.678 167.417 758.369 169.144 759.545 171.349C760.758 173.518 761.364 175.98 761.364 178.737ZM756.182 177.689C756.182 175.778 755.759 174.142 754.914 172.783C754.069 171.386 752.911 170.339 751.441 169.64C750.007 168.905 748.409 168.538 746.644 168.538C744.108 168.538 741.94 169.346 740.139 170.963C738.375 172.58 737.364 174.822 737.107 177.689H756.182ZM788.77 164.237C792.446 164.237 795.423 165.358 797.701 167.6C799.98 169.806 801.119 173.003 801.119 177.193V195H796.158V177.91C796.158 174.896 795.404 172.599 793.897 171.018C792.39 169.401 790.332 168.593 787.723 168.593C785.076 168.593 782.963 169.42 781.383 171.074C779.839 172.727 779.067 175.135 779.067 178.296V195H774.05V164.789H779.067V169.089C780.06 167.545 781.401 166.351 783.092 165.505C784.819 164.66 786.712 164.237 788.77 164.237ZM821.498 168.924V186.73C821.498 188.201 821.81 189.248 822.435 189.873C823.06 190.461 824.144 190.755 825.688 190.755H829.382V195H824.861C822.068 195 819.973 194.357 818.576 193.07C817.18 191.784 816.481 189.671 816.481 186.73V168.924H812.567V164.789H816.481V157.181H821.498V164.789H829.382V168.924H821.498ZM875.463 195.496C872.633 195.496 870.06 194.853 867.744 193.567C865.466 192.28 863.665 190.461 862.342 188.109C861.055 185.72 860.412 182.963 860.412 179.839C860.412 176.752 861.074 174.032 862.397 171.68C863.757 169.291 865.594 167.472 867.91 166.222C870.225 164.936 872.816 164.293 875.683 164.293C878.55 164.293 881.141 164.936 883.456 166.222C885.772 167.472 887.591 169.273 888.914 171.625C890.274 173.977 890.954 176.715 890.954 179.839C890.954 182.963 890.256 185.72 888.859 188.109C887.499 190.461 885.643 192.28 883.291 193.567C880.939 194.853 878.329 195.496 875.463 195.496ZM875.463 191.086C877.263 191.086 878.954 190.663 880.535 189.818C882.115 188.972 883.383 187.704 884.339 186.014C885.331 184.323 885.827 182.265 885.827 179.839C885.827 177.414 885.349 175.355 884.394 173.665C883.438 171.974 882.188 170.724 880.645 169.916C879.101 169.071 877.429 168.648 875.628 168.648C873.79 168.648 872.1 169.071 870.556 169.916C869.049 170.724 867.836 171.974 866.917 173.665C865.999 175.355 865.539 177.414 865.539 179.839C865.539 182.302 865.98 184.378 866.862 186.069C867.781 187.76 868.994 189.028 870.501 189.873C872.008 190.681 873.662 191.086 875.463 191.086ZM915.909 168.924H909.569V195H904.552V168.924H900.638V164.789H904.552V162.639C904.552 159.257 905.415 156.795 907.143 155.251C908.907 153.671 911.719 152.881 915.578 152.881V157.071C913.373 157.071 911.811 157.512 910.892 158.394C910.01 159.239 909.569 160.654 909.569 162.639V164.789H915.909V168.924ZM953.601 156.574V195H948.584V156.574H953.601ZM973.233 160.654V173.499H987.236V177.634H973.233V190.865H988.89V195H968.216V156.519H988.89V160.654H973.233ZM1007.56 160.654V173.499H1021.56V177.634H1007.56V190.865H1023.22V195H1002.54V156.519H1023.22V160.654H1007.56ZM1041.89 160.654V173.499H1055.89V177.634H1041.89V190.865H1057.55V195H1036.87V156.519H1057.55V160.654H1041.89ZM1104.15 195.386C1101.61 195.386 1099.33 194.945 1097.31 194.063C1095.33 193.144 1093.77 191.894 1092.63 190.314C1091.49 188.697 1090.9 186.841 1090.86 184.746H1096.21C1096.39 186.547 1097.13 188.072 1098.42 189.322C1099.74 190.534 1101.65 191.141 1104.15 191.141C1106.54 191.141 1108.41 190.553 1109.77 189.377C1111.17 188.164 1111.87 186.62 1111.87 184.746C1111.87 183.276 1111.46 182.081 1110.65 181.162C1109.85 180.244 1108.84 179.545 1107.62 179.067C1106.41 178.59 1104.77 178.075 1102.72 177.524C1100.18 176.862 1098.14 176.201 1096.6 175.539C1095.09 174.878 1093.78 173.848 1092.68 172.452C1091.62 171.018 1091.08 169.107 1091.08 166.718C1091.08 164.623 1091.62 162.767 1092.68 161.15C1093.75 159.533 1095.24 158.283 1097.15 157.401C1099.1 156.519 1101.32 156.078 1103.82 156.078C1107.42 156.078 1110.36 156.979 1112.64 158.78C1114.95 160.581 1116.26 162.969 1116.55 165.946H1111.04C1110.86 164.476 1110.08 163.19 1108.72 162.087C1107.37 160.948 1105.56 160.378 1103.32 160.378C1101.23 160.378 1099.52 160.93 1098.2 162.032C1096.87 163.098 1096.21 164.605 1096.21 166.553C1096.21 167.95 1096.6 169.089 1097.37 169.971C1098.18 170.853 1099.15 171.533 1100.29 172.011C1101.47 172.452 1103.1 172.966 1105.2 173.554C1107.73 174.253 1109.77 174.951 1111.32 175.649C1112.86 176.311 1114.18 177.358 1115.29 178.792C1116.39 180.188 1116.94 182.1 1116.94 184.525C1116.94 186.4 1116.44 188.164 1115.45 189.818C1114.46 191.472 1112.99 192.813 1111.04 193.842C1109.09 194.871 1106.8 195.386 1104.15 195.386ZM1149.63 175.208C1151.02 175.429 1152.29 175.999 1153.43 176.917C1154.61 177.836 1155.53 178.976 1156.19 180.335C1156.89 181.695 1157.23 183.147 1157.23 184.691C1157.23 186.639 1156.74 188.403 1155.75 189.983C1154.75 191.527 1153.3 192.758 1151.39 193.677C1149.52 194.559 1147.29 195 1144.72 195H1130.39V156.574H1144.17C1146.78 156.574 1149 157.015 1150.84 157.898C1152.68 158.743 1154.06 159.901 1154.97 161.371C1155.89 162.841 1156.35 164.495 1156.35 166.332C1156.35 168.611 1155.73 170.504 1154.48 172.011C1153.27 173.481 1151.65 174.547 1149.63 175.208ZM1135.4 173.169H1143.84C1146.19 173.169 1148.01 172.617 1149.3 171.515C1150.58 170.412 1151.23 168.887 1151.23 166.939C1151.23 164.991 1150.58 163.466 1149.3 162.363C1148.01 161.26 1146.15 160.709 1143.73 160.709H1135.4V173.169ZM1144.28 190.865C1146.78 190.865 1148.73 190.277 1150.12 189.101C1151.52 187.925 1152.22 186.289 1152.22 184.195C1152.22 182.063 1151.48 180.391 1150.01 179.178C1148.54 177.928 1146.58 177.303 1144.11 177.303H1135.4V190.865H1144.28ZM1203.21 195.386C1200.67 195.386 1198.39 194.945 1196.37 194.063C1194.39 193.144 1192.82 191.894 1191.68 190.314C1190.54 188.697 1189.96 186.841 1189.92 184.746H1195.27C1195.45 186.547 1196.19 188.072 1197.47 189.322C1198.8 190.534 1200.71 191.141 1203.21 191.141C1205.6 191.141 1207.47 190.553 1208.83 189.377C1210.23 188.164 1210.92 186.62 1210.92 184.746C1210.92 183.276 1210.52 182.081 1209.71 181.162C1208.9 180.244 1207.89 179.545 1206.68 179.067C1205.47 178.59 1203.83 178.075 1201.77 177.524C1199.24 176.862 1197.2 176.201 1195.65 175.539C1194.15 174.878 1192.84 173.848 1191.74 172.452C1190.67 171.018 1190.14 169.107 1190.14 166.718C1190.14 164.623 1190.67 162.767 1191.74 161.15C1192.81 159.533 1194.29 158.283 1196.21 157.401C1198.15 156.519 1200.38 156.078 1202.88 156.078C1206.48 156.078 1209.42 156.979 1211.7 158.78C1214.01 160.581 1215.32 162.969 1215.61 165.946H1210.1C1209.91 164.476 1209.14 163.19 1207.78 162.087C1206.42 160.948 1204.62 160.378 1202.38 160.378C1200.28 160.378 1198.58 160.93 1197.25 162.032C1195.93 163.098 1195.27 164.605 1195.27 166.553C1195.27 167.95 1195.65 169.089 1196.43 169.971C1197.23 170.853 1198.21 171.533 1199.35 172.011C1200.52 172.452 1202.16 172.966 1204.25 173.554C1206.79 174.253 1208.83 174.951 1210.37 175.649C1211.92 176.311 1213.24 177.358 1214.34 178.792C1215.45 180.188 1216 182.1 1216 184.525C1216 186.4 1215.5 188.164 1214.51 189.818C1213.52 191.472 1212.05 192.813 1210.1 193.842C1208.15 194.871 1205.85 195.386 1203.21 195.386ZM1248.79 156.574V184.966C1248.79 188.127 1247.82 190.663 1245.87 192.574C1243.92 194.449 1241.35 195.386 1238.15 195.386C1234.92 195.386 1232.33 194.43 1230.38 192.519C1228.43 190.571 1227.46 187.925 1227.46 184.58H1232.48C1232.51 186.455 1232.99 187.98 1233.91 189.156C1234.86 190.332 1236.28 190.92 1238.15 190.92C1240.03 190.92 1241.43 190.369 1242.34 189.266C1243.26 188.127 1243.72 186.694 1243.72 184.966V156.574H1248.79ZM1262.87 175.76C1262.87 172.011 1263.71 168.648 1265.4 165.671C1267.09 162.657 1269.39 160.305 1272.29 158.614C1275.24 156.924 1278.49 156.078 1282.05 156.078C1286.24 156.078 1289.9 157.089 1293.02 159.11C1296.15 161.132 1298.43 163.999 1299.86 167.711H1293.85C1292.78 165.395 1291.24 163.613 1289.22 162.363C1287.23 161.113 1284.85 160.489 1282.05 160.489C1279.37 160.489 1276.96 161.113 1274.83 162.363C1272.7 163.613 1271.03 165.395 1269.81 167.711C1268.6 169.989 1267.99 172.672 1267.99 175.76C1267.99 178.81 1268.6 181.493 1269.81 183.809C1271.03 186.087 1272.7 187.851 1274.83 189.101C1276.96 190.351 1279.37 190.976 1282.05 190.976C1284.85 190.976 1287.23 190.369 1289.22 189.156C1291.24 187.907 1292.78 186.124 1293.85 183.809H1299.86C1298.43 187.484 1296.15 190.332 1293.02 192.354C1289.9 194.338 1286.24 195.331 1282.05 195.331C1278.49 195.331 1275.24 194.504 1272.29 192.85C1269.39 191.159 1267.09 188.825 1265.4 185.848C1263.71 182.871 1262.87 179.508 1262.87 175.76ZM1318.41 160.654V173.499H1332.41V177.634H1318.41V190.865H1334.07V195H1313.39V156.519H1334.07V160.654H1318.41ZM1371.37 156.574V160.654H1360.9V195H1355.88V160.654H1345.35V156.574H1371.37Z" fill="white"/>
<path d="M73.0745 36.8064V75.2832" stroke="white" stroke-width="10" stroke-linecap="round"/>
<path d="M35.3374 136.698L9.43951 151.184" stroke="white" stroke-width="10" stroke-linecap="round"/>
<path d="M137.137 150.969L111.157 136.63" stroke="white" stroke-width="10" stroke-linecap="round"/>
<path d="M48.2686 104.672V98.9087H69.7998V104.723C69.7998 105.316 69.5882 105.823 69.165 106.247C68.7419 106.653 68.2425 106.856 67.667 106.856C67.0745 106.856 66.5583 106.644 66.1182 106.221C65.695 105.798 65.4834 105.299 65.4834 104.723V103.174H61.167V130.469C61.167 131.062 60.9554 131.569 60.5322 131.993C60.109 132.399 59.6097 132.602 59.0342 132.602C58.4248 132.602 57.9085 132.399 57.4854 131.993C57.0622 131.569 56.8506 131.062 56.8506 130.469V103.174H52.5342V104.672C52.5342 105.265 52.3226 105.773 51.8994 106.196C51.4932 106.602 50.9938 106.805 50.4014 106.805C49.8089 106.805 49.3011 106.602 48.8779 106.196C48.4717 105.773 48.2686 105.265 48.2686 104.672ZM79.6514 102.87V101.042C79.6514 100.449 79.8545 99.9497 80.2607 99.5435C80.6839 99.1203 81.1917 98.9087 81.7842 98.9087H101.132V112.01C101.132 112.704 100.869 113.28 100.345 113.737L92.499 120.44V130.368C92.499 130.96 92.2874 131.476 91.8643 131.917C91.458 132.34 90.9587 132.551 90.3662 132.551C89.7738 132.551 89.2575 132.34 88.8174 131.917C88.3942 131.493 88.1826 130.994 88.1826 130.418V119.653C88.1826 118.84 88.4365 118.214 88.9443 117.774L96.8154 111.122V103.174H83.917C83.6123 104.393 82.9014 105.002 81.7842 105.002C81.1917 105.002 80.6839 104.799 80.2607 104.393C79.8545 103.97 79.6514 103.462 79.6514 102.87Z" fill="white"/>
<path d="M72.3345 163.336V192.194" stroke="white" stroke-width="10" stroke-linecap="round"/>
<path d="M31.6377 90.822L7.95965 76.0232" stroke="white" stroke-width="10" stroke-linecap="round"/>
<path d="M113.031 90.082L95.2725 78.9829" stroke="white" stroke-width="10" stroke-linecap="round"/>
<path d="M92.2075 152.237L72.3344 164.076" stroke="white" stroke-width="10" stroke-linecap="round"/>
<path d="M31.6377 112.28L31.6377 91.562" stroke="white" stroke-width="10" stroke-linecap="round"/>
<path d="M113.771 112.28V90.822" stroke="white" stroke-width="10" stroke-linecap="round"/>
<path d="M71.5945 162.596L53.8359 152.237" stroke="white" stroke-width="10" stroke-linecap="round"/>
<path d="M31.6377 90.082L50.8761 78.9829" stroke="white" stroke-width="10" stroke-linecap="round"/>
<path d="M114.511 89.342L133.009 78.243" stroke="white" stroke-width="10" stroke-linecap="round"/>
<path d="M73.8142 36.0664L138.929 75.2832" stroke="white" stroke-width="10" stroke-linecap="round"/>
<path d="M5.73999 153.717L70.8546 192.934" stroke="white" stroke-width="10" stroke-linecap="round"/>
<path d="M73.4707 36L5.00007 75.2832" stroke="white" stroke-width="10" stroke-linecap="round"/>
<path d="M138.929 154.457L71.5945 193" stroke="white" stroke-width="10" stroke-linecap="round"/>
<path d="M138.929 154.222V75.2832" stroke="white" stroke-width="10" stroke-linecap="round"/>
<path d="M5 152.977L5 75.2832" stroke="white" stroke-width="10" stroke-linecap="round"/>
</svg>
